<svg width="158" height="39" xmlns="http://www.w3.org/2000/svg">
<title>logo</title>
    <g fill-rule="nonzero" fill="none">
        <path d="M11.285 26.78c4.333 4.333 11.358 4.333 15.691 0l7.841-7.84 3.444 3.443v8.226a7.652 7.652 0 0 1-7.652 7.652H7.652A7.652 7.652 0 0 1 0 30.609v-8.226l3.443-3.444 7.842 7.841z" fill="#00C00A"/>
        <path d="M38.26 22.383 26.977 11.098c-4.333-4.333-11.358-4.333-15.691 0L0 22.383V7.653A7.652 7.652 0 0 1 7.652 0H30.61a7.652 7.652 0 0 1 7.652 7.652v14.73z" fill="#445CF1"/>
        <path d="m26.976 11.098 7.841 7.841-7.84 7.841c-4.334 4.333-11.36 4.333-15.692 0l-7.842-7.84 7.842-7.842c4.333-4.333 11.358-4.333 15.691 0z" fill="#FFF"/>
        <path d="m21.507 20.739 3.676 2.064a7.078 7.078 0 1 1-.146-7.575l-3.695 2.074a2.87 2.87 0 1 0 .165 3.437z" fill="#000"/>
        <g>
            <path d="M74.516 14.68c1.253 0 2.43.31 3.533.934a6.772 6.772 0 0 1 2.582 2.538 6.79 6.79 0 0 1 .928 3.46 6.91 6.91 0 0 1-.934 3.497 6.72 6.72 0 0 1-2.545 2.544c-1.074.61-2.258.916-3.552.916-1.904 0-3.53-.673-4.877-2.021-1.346-1.348-2.02-2.985-2.02-4.912 0-2.064.761-3.784 2.283-5.16 1.334-1.198 2.868-1.797 4.602-1.797zm18.868 0v1.832c.89-1.033 2.377-1.833 3.935-1.833 3.003 0 4.611 2.178 4.611 4.736v9.154h-3.165v-7.837c0-1.654-.665-3.214-2.6-3.226-1.307-.008-2.781 1.299-2.781 3.191v7.872h-3.165V14.68h3.165zm59.319-.064c.869 0 1.687.188 2.454.565a5.412 5.412 0 0 1 1.95 1.62l-2.08 2.053c-.844-.826-1.611-1.239-2.3-1.239-.377 0-.672.08-.885.237-.214.158-.32.354-.32.589 0 .178.067.342.203.492.135.15.47.354 1.002.613l1.23.607c1.296.631 2.186 1.275 2.67 1.93.483.656.725 1.425.725 2.307 0 1.174-.437 2.153-1.31 2.938-.873.786-2.044 1.178-3.512 1.178-1.951 0-3.51-.753-4.674-2.258l2.067-2.222c.393.453.855.82 1.383 1.099.53.279.999.419 1.409.419.443 0 .8-.106 1.07-.316.27-.21.406-.453.406-.729 0-.51-.488-1.007-1.464-1.493l-1.131-.558c-2.165-1.077-3.248-2.425-3.248-4.044 0-1.044.408-1.936 1.224-2.677.816-.74 1.86-1.11 3.13-1.11zm-11.079 0c.87 0 1.687.188 2.454.565a5.412 5.412 0 0 1 1.95 1.62l-2.08 2.053c-.844-.826-1.61-1.239-2.3-1.239-.377 0-.672.08-.885.237-.213.158-.32.354-.32.589 0 .178.068.342.203.492.135.15.47.354 1.003.613l1.23.607c1.295.631 2.185 1.275 2.669 1.93.484.656.726 1.425.726 2.307 0 1.174-.437 2.153-1.31 2.938-.874.786-2.044 1.178-3.512 1.178-1.952 0-3.51-.753-4.674-2.258l2.066-2.222c.394.453.855.82 1.384 1.099.529.279.998.419 1.408.419.443 0 .8-.106 1.07-.316.271-.21.406-.453.406-.729 0-.51-.488-1.007-1.463-1.493l-1.132-.558c-2.165-1.077-3.247-2.425-3.247-4.044 0-1.044.408-1.936 1.224-2.677.815-.74 1.859-1.11 3.13-1.11zm-13.472 0c1.253 0 2.431.312 3.534.935a6.772 6.772 0 0 1 2.581 2.538 6.79 6.79 0 0 1 .928 3.46c0 .368-.027.73-.082 1.084h-10.552c.162.608.479 1.133.969 1.623.753.754 1.572 1.093 2.634 1.093.75 0 1.393-.165 1.984-.501.312-.178.584-.388.823-.637h3.701a7.232 7.232 0 0 1-.41.835 6.72 6.72 0 0 1-2.546 2.544c-1.074.61-2.258.916-3.552.916-1.904 0-3.53-.674-4.876-2.021-1.347-1.348-2.02-2.985-2.02-4.912 0-2.064.76-3.784 2.282-5.16 1.335-1.198 2.869-1.797 4.602-1.797zm-69.447-5.05c1.762 0 3.417.424 4.967 1.274a9.572 9.572 0 0 1 2.765 2.244l-2.67 2.228a6.099 6.099 0 0 0-1.773-1.43 6.682 6.682 0 0 0-3.289-.844c-1.588 0-2.932.509-4.167 1.585-1.39 1.219-2.026 2.615-2.026 4.43 0 1.688.566 3.024 1.786 4.208 1.24 1.205 2.652 1.773 4.425 1.773 1.236 0 2.32-.272 3.306-.816a5.848 5.848 0 0 0 1.719-1.415l2.691 2.203a9.326 9.326 0 0 1-2.724 2.25c-1.51.834-3.174 1.25-4.992 1.25-2.677 0-4.961-.919-6.854-2.756-1.893-1.838-2.839-4.07-2.839-6.698 0-2.814 1.07-5.16 3.208-7.036 1.876-1.634 4.031-2.45 6.467-2.45zm28.625 5.05v13.89h-3.165v-13.89h3.165zm20.575-3.788 7.665 11.814V10.828h3.165v17.678h-2.848l-7.666-11.531v11.531h-3.165V10.828h2.849zm-33.39 7.008c-.943 0-1.725.305-2.475.979-.859.776-1.243 1.646-1.243 2.821 0 1.094.343 1.93 1.096 2.683.754.754 1.572 1.094 2.635 1.094.75 0 1.393-.166 1.983-.502a3.56 3.56 0 0 0 1.367-1.37 3.76 3.76 0 0 0 .515-1.929c0-.685-.163-1.294-.503-1.882a3.614 3.614 0 0 0-1.401-1.37 3.898 3.898 0 0 0-1.973-.524zm53.637-.063c-.944 0-1.725.305-2.476.979-.36.325-.635.666-.835 1.04h6.754a3.614 3.614 0 0 0-1.47-1.494 3.898 3.898 0 0 0-1.973-.525z" fill="#FFF"/>
            <path fill="#00C80A" d="M84.165 13.038h3.165v-2.49l-1.582-.983-1.583.983z"/>
        </g>
    </g>
</svg>
